<?xml version="1.0" encoding="UTF-8" standalone="no"?>
<svg
   xmlns:dc="http://purl.org/dc/elements/1.1/"
   xmlns:cc="http://creativecommons.org/ns#"
   xmlns:rdf="http://www.w3.org/1999/02/22-rdf-syntax-ns#"
   xmlns:svg="http://www.w3.org/2000/svg"
   xmlns="http://www.w3.org/2000/svg"
   xmlns:sodipodi="http://sodipodi.sourceforge.net/DTD/sodipodi-0.dtd"
   xmlns:inkscape="http://www.inkscape.org/namespaces/inkscape"
   width="300"
   height="121"
   viewBox="0 0 709 285"
   version="1.0"
   id="svg2"
   sodipodi:version="0.32"
   inkscape:version="0.46"
   sodipodi:docname="Carrier_Logo.svg"
   inkscape:output_extension="org.inkscape.output.svg.inkscape">
  <metadata
     id="metadata35">
    <rdf:RDF>
      <cc:Work
         rdf:about="">
        <dc:format>image/svg+xml</dc:format>
        <dc:type
           rdf:resource="http://purl.org/dc/dcmitype/StillImage" />
      </cc:Work>
    </rdf:RDF>
  </metadata>
  <defs
     id="defs33">
    <inkscape:perspective
       sodipodi:type="inkscape:persp3d"
       inkscape:vp_x="0 : 178.125 : 1"
       inkscape:vp_y="0 : 1000 : 0"
       inkscape:vp_z="886.25 : 178.125 : 1"
       inkscape:persp3d-origin="443.125 : 118.75 : 1"
       id="perspective37" />
  </defs>
  <sodipodi:namedview
     inkscape:window-height="669"
     inkscape:window-width="640"
     inkscape:pageshadow="2"
     inkscape:pageopacity="0.0"
     guidetolerance="10.0"
     gridtolerance="10.0"
     objecttolerance="10.0"
     borderopacity="1.0"
     bordercolor="#666666"
     pagecolor="#ffffff"
     id="base"
     showgrid="false"
     inkscape:zoom="0.61382228"
     inkscape:cx="443.125"
     inkscape:cy="178.125"
     inkscape:window-x="69"
     inkscape:window-y="69"
     inkscape:current-layer="svg2" />
  <g
     id="#fefefeff">
    <path
       d="M 322.07,14.97 C 328.06,14.78 334.03,13.92 340.04,14.03 C 358.04,14.14 376.04,13.76 394.03,14.35 C 400.97,15.36 408.02,14.72 414.95,15.75 C 428.41,16.04 441.74,18.05 455.14,19.19 C 490.18,23.87 525.2,29.77 559.13,39.9 C 589.83,48.73 620.42,59.43 647.61,76.5 C 657.89,83.21 668.19,90.22 676.31,99.53 C 686.31,110.05 693.44,124.2 692.99,138.97 C 693.33,146.26 690.76,153.28 687.9,159.86 C 683.1,170.67 675.3,179.78 666.71,187.77 C 655.87,197.21 643.71,204.96 631.35,212.24 C 604.23,226.66 574.84,236.33 544.98,243.25 C 537.31,245.66 529.34,246.85 521.48,248.41 C 502.4,252.39 483.15,255.35 463.89,258.29 C 446.09,261.38 428.04,262.35 410.08,263.92 C 405.71,264.02 401.32,263.89 396.97,264.38 C 390.01,265.27 382.98,264.85 375.98,264.96 C 361.66,265.4 347.33,265.19 333,265.16 C 323.36,264.56 313.65,265.58 304.05,264.23 C 247.93,261.61 191.97,253.24 137.75,238.34 C 113.25,230.74 89.01,221.85 66.57,209.29 C 55.07,202.17 43.97,194.23 34.76,184.25 C 28.46,177.42 21.99,170.35 18.21,161.75 C 13.02,148.09 13.45,132.14 20.01,119.01 C 22.49,114.02 26.29,109.9 29.61,105.48 C 45.21,86.98 65.15,72.37 86.95,61.98 C 98.17,56.3 110.1,52.24 121.84,47.78 C 138.37,42.61 154.75,36.64 171.88,33.74 C 206.17,26.19 240.98,21.25 275.91,18.01 C 291.28,16.8 306.62,14.86 322.07,14.97 M 289.08,26.63 C 266.28,27.42 243.55,29.26 220.86,31.55 C 180.09,36.57 139.23,44.71 101.43,61.26 C 98.43,62.6 95.43,63.94 92.43,65.26 C 74.95,73.11 58.42,83.31 43.99,95.94 C 40.31,99.65 36.73,103.47 33.28,107.4 C 26.3,116.37 19.4,126.33 18.09,137.92 C 16.96,152.01 22.75,166.3 32.71,176.22 C 50.94,195.86 75.27,208.43 99.96,218 C 126.86,227.33 154.25,235.5 182.33,240.41 C 219.17,247.63 256.56,251.87 294.04,253.38 C 302.3,254.44 310.66,253.68 318.94,254.59 C 324.26,255.04 329.62,255.07 334.96,255.04 C 347.99,254.99 361.02,255.22 374.04,254.67 C 383.67,253.9 393.34,254.07 403,254.02 C 434.29,251.56 465.62,249.29 496.81,245.53 C 504.91,244.36 512.95,242.79 521.09,241.87 C 544.5,238.18 567.56,232.34 590.08,224.99 C 609.75,218.18 629.55,210.64 646.48,198.27 C 661.57,188.05 675.78,175.31 683.81,158.65 C 688.36,149.65 690.15,139.32 688.66,129.34 C 686.11,116.42 677.97,105.22 668.07,96.84 C 656.94,87.12 644.06,79.6 630.79,73.21 C 616.11,66.86 601.18,61.11 586.02,56.03 C 550.27,44.43 513.29,37.04 476.08,32.03 C 461.03,30.6 446.06,28.17 430.94,27.68 C 424.05,26.51 417.04,27.31 410.11,26.53 C 402.43,25.61 394.65,26.35 386.97,25.31 C 364.3,24.8 341.6,24.73 318.93,25.31 C 309.01,26.42 299,25.5 289.08,26.63 z"
       id="path5"
       style="opacity:1;fill:#fefefe" />
    <path
       d="M 186.88,78.83 C 194.85,77.67 203.63,77.77 210.58,82.38 C 214.08,84.73 217.39,89.17 215.35,93.52 C 213.15,100.84 202.94,103.48 197.23,98.75 C 194.22,95.65 194.62,91.1 196.98,87.77 C 196.66,87.32 196.04,86.42 195.72,85.98 C 182.1,83.56 167.75,87.54 156.93,96.06 C 150.98,100.95 145.06,106.14 140.85,112.66 C 133.27,124.53 127.35,138.52 129.17,152.88 C 130.49,159.89 133.76,167.32 140.38,170.77 C 148.51,175.56 158.73,174.79 167.18,171.26 C 174.39,168.98 180.64,164.71 187.05,160.84 C 187.78,161.8 188.41,162.84 189.09,163.85 C 186.94,169.02 181.3,171.13 176.94,174.05 C 163.71,180.78 147.87,184.04 133.41,179.52 C 122.64,176.75 114.1,167.49 111.26,156.86 C 109.5,151.45 109.71,145.67 109.9,140.06 C 109.9,135.83 111.3,131.78 112.85,127.89 C 117.29,116.96 124.8,107.42 133.99,100.08 C 141.92,94.33 150.2,88.86 159.35,85.25 C 168.25,82.15 177.38,79.06 186.88,78.83 z"
       id="path7"
       style="opacity:1;fill:#fefefe" />
    <path
       d="M 452.47,81.58 C 455.61,79.96 458.76,82.17 461,84.26 C 462.54,89.38 461.22,95.5 456.82,98.82 C 454.32,101.43 450.52,101.2 447.22,101.1 C 440.82,95.35 444.61,83.81 452.47,81.58 z"
       id="path9"
       style="opacity:1;fill:#fefefe" />
    <path
       d="M 318.72,136.76 C 326.38,126.55 331.49,112.51 344.69,108.19 C 346.44,108.58 348.2,108.91 349.98,109.21 C 353.14,112.35 355.18,116.72 354.73,121.24 C 354.35,122.38 354,123.53 353.69,124.7 C 351.36,127.76 347.93,129.99 343.97,129.93 C 342.36,129.04 340.79,128.1 339.32,127 C 339,124.77 338.46,122.57 337.71,120.44 C 333.75,122.4 330.75,125.74 328.52,129.49 C 321.58,142.16 314.35,154.79 309.61,168.5 C 308.2,172.07 307.61,176.11 304.89,179.01 C 301,179.23 297.07,179.32 293.19,178.82 C 292.43,177.94 291.88,176.92 291.26,175.95 C 296.83,157.94 303.32,140.2 307.78,121.86 C 307.74,121.21 307.66,119.91 307.62,119.26 C 302.07,121.92 298.61,127.24 294.5,131.58 C 293.67,132.72 292.29,133.02 290.98,133.13 C 290.37,131.12 291.54,129.26 292.42,127.54 C 297.43,120.89 303.08,114.38 310.54,110.4 C 313.29,108.93 316.52,108.66 319.57,109.18 C 323.22,112.07 323.52,117.38 322.4,121.57 C 321.55,126.73 319.83,131.68 318.72,136.76 z"
       id="path11"
       style="opacity:1;fill:#fefefe" />
    <path
       d="M 406.88,111.84 C 410.72,109.42 416.05,106.44 420.09,110.18 C 424.06,114.45 425.07,121.75 421.42,126.56 C 418.8,129.39 414.42,131.11 410.76,129.34 C 407.81,127.19 408.96,122.65 406.01,120.45 C 400.53,125.06 397.05,131.45 393.23,137.39 C 390.36,143.46 386.67,149.11 384.2,155.37 C 380.97,162.03 378.57,169.03 375.96,175.95 C 375.6,177.13 374.64,177.94 373.92,178.89 C 370.09,179.63 366.03,180.34 362.33,178.69 C 359.75,177.02 361.51,173.44 361.99,171.06 C 367.1,155.36 371.92,139.56 376.77,123.78 C 377.16,122.41 376.73,120.98 376.69,119.6 C 370.58,122.16 367.5,128.28 363.04,132.75 C 362.19,132.86 360.5,133.1 359.66,133.22 C 359.43,128 364.09,124.81 366.79,120.92 C 372.31,114.19 380.71,107.25 390,110.11 C 395.24,118.82 389.36,128.61 387.88,137.52 C 393.83,128.72 398.18,118.42 406.88,111.84 z"
       id="path13"
       style="opacity:1;fill:#fefefe" />
    <path
       d="M 491.56,113.54 C 499.84,108.41 509.97,106.94 519.51,108.46 C 523.45,109.32 527.49,110.67 530.44,113.55 C 531.96,115.27 532.87,117.41 533.87,119.45 C 536.37,126.44 532.17,133.71 526.98,138.24 C 515.15,147.87 499.28,148.9 484.98,152.22 C 483.21,157.12 482.88,163.47 486.6,167.58 C 491.35,172.31 498.92,173.61 505.1,171.15 C 511.7,169.06 517.19,164.78 522.66,160.72 C 523.7,159.36 524.98,160.62 526.13,161 C 523.75,166.95 518.66,171.15 513.53,174.69 C 507.59,179.23 500.32,181.54 493.06,182.86 C 483.96,183.75 473.61,180.03 469.32,171.49 C 466.19,164.91 465.27,157.26 466.78,150.13 C 468.67,134.94 478.14,120.92 491.56,113.54 M 505.46,114.27 C 494.15,120.41 490.61,133.82 486.69,145.12 C 492.23,145.13 497.75,144.1 502.93,142.14 C 509.03,139.32 515.29,134.94 516.93,128.01 C 518.17,123.81 518.18,118.96 515.52,115.3 C 512.79,112.92 508.56,112.05 505.46,114.27 z"
       id="path15"
       style="opacity:1;fill:#fefefe" />
    <path
       d="M 239.97,110.05 C 246.46,108.24 254.53,107.96 259.3,113.58 C 260.29,111.96 261.3,110.34 262.37,108.75 C 266.89,108.8 271.43,108.72 275.94,109.18 C 270.84,125.38 265.82,141.61 260.72,157.81 C 259.51,161.82 257.77,165.74 257.66,169.99 C 265.4,168.75 267.28,159.59 274.13,156.77 C 275.78,161.29 271.81,165.02 269.2,168.19 C 263.33,173.98 256.74,180.69 248.02,181.2 C 244.43,181.73 241.39,178.76 240.35,175.58 C 239.69,171.98 240.41,168.3 240.32,164.67 C 234.13,170.89 228.15,177.94 219.54,180.79 C 216.15,181.71 212.68,181.66 209.27,180.9 C 204.1,178.19 200.68,172.8 200.04,167.04 C 198.52,154.09 204,141.42 211.18,130.94 C 218.32,121.28 228.31,113.4 239.97,110.05 M 243.36,116.07 C 228.01,126.66 218.3,144.76 216.95,163.25 C 218.73,168.08 224.69,169.77 229,167.14 C 241.01,159.89 246.74,146.33 252.05,133.98 C 253.9,129.01 257.12,124.17 256.07,118.62 C 255.67,117.97 254.87,116.69 254.47,116.04 C 250.99,114.06 246.89,114.45 243.36,116.07 z"
       id="path17"
       style="opacity:1;fill:#fefefe" />
    <path
       d="M 588.19,113.25 C 591.52,110.42 595.84,108.99 600.17,108.83 C 603.68,111.49 606.8,115.36 606.03,120.07 C 606.69,125.53 601.83,129.36 597.16,130.85 C 595.39,129.95 593.35,129.42 591.86,128.1 C 590.71,125.7 590.23,123.04 589.23,120.58 C 582.3,124.87 579.16,132.66 575.26,139.42 C 569.25,150.71 562.95,162 559.33,174.34 C 558.86,176.6 557.59,178.52 555.89,180.04 C 551.66,179.7 546.92,180.72 543.22,178.12 C 547.57,160.17 554.81,143.06 558.82,125.02 C 559.22,123.3 559.26,121.53 559.2,119.78 C 553.23,122.01 550.74,128.34 546.18,132.29 C 545.25,133.35 543.71,133.07 542.47,133.34 C 542.35,132.69 542.11,131.38 541.99,130.73 C 547.94,122.94 553.92,114.3 563.34,110.46 C 566.15,109.72 569.11,110.08 572,109.98 C 573.54,112.09 574.43,114.58 574.68,117.17 C 574.16,124.43 571.65,131.29 570.21,138.36 C 575.97,129.85 580.02,119.84 588.19,113.25 z"
       id="path19"
       style="opacity:1;fill:#fefefe" />
    <path
       d="M 438.28,114.48 C 439.06,112.78 439.43,109.85 441.92,110.13 C 446.02,110.07 450.41,109.33 454.21,111.33 C 451.6,121.87 448.11,132.16 444.7,142.46 C 442,149.95 439.54,157.53 437.18,165.13 C 436.54,167.19 436.79,169.37 436.85,171.49 C 444.36,169.61 448.06,161.91 454.73,158.52 C 454.94,160.58 455.14,162.8 453.73,164.52 C 448.8,171.36 441.95,176.77 434.36,180.4 C 430.54,182.2 426.28,182.09 422.16,181.95 C 418.74,177.78 418.17,171.97 420.12,167.03 C 426.15,149.51 432.22,132 438.28,114.48 z"
       id="path21"
       style="opacity:1;fill:#fefefe" />
  </g>
  <g
     id="#020298ff">
    <path
       d="M 167.03,21.27 C 217.07,8.78 268.61,3.51 320,0.96 C 340.01,1.11 360.03,0.6 380.03,1.3 C 389.06,2.22 398.15,1.58 407.18,2.38 C 412.11,3.06 417.1,2.85 422.06,3.17 C 429.59,3.89 437.1,4.69 444.63,5.37 C 461.9,7.87 479.35,9.14 496.49,12.52 C 516.1,15.87 535.62,19.91 554.85,25.02 C 575.33,30.87 595.64,37.41 615.19,45.89 C 631.85,53.38 648.63,61.01 663.52,71.72 C 675.28,80.69 686.9,90.29 695.33,102.59 C 703.34,113.96 708.38,127.88 707.2,141.93 C 705.96,159.51 697.57,175.96 686.26,189.22 C 675.58,201.03 663.17,211.35 649.36,219.31 C 632.03,229.73 613.39,237.94 594.1,243.98 C 571.47,251.69 548.18,257.25 524.95,262.77 C 491.33,270.02 457.28,275.5 422.98,278.12 C 407.35,279.73 391.63,279.81 375.98,281.02 C 351.74,280.94 327.46,282.01 303.25,280.19 C 297.15,280.15 291.07,279.67 285,279.14 C 275.91,279.21 266.97,277.32 257.92,276.82 C 206.26,271.41 154.61,261.81 106.06,242.86 C 88.28,236.04 71.18,227.58 54.49,218.46 C 46.74,213.39 39.57,207.48 32.45,201.58 C 17.21,188.18 3.04,171.44 0,150.68 L 0,136.65 C 0.74,132.61 1.3,128.51 2.69,124.63 C 9.19,106.67 21.32,91.1 36.11,79.18 C 58.31,60.53 85.49,49.43 111.86,38.1 C 129.95,31.59 148.41,26.1 167.03,21.27 M 322.07,14.97 C 306.62,14.86 291.28,16.8 275.91,18.01 C 240.98,21.25 206.17,26.19 171.88,33.74 C 154.75,36.64 138.37,42.61 121.84,47.78 C 110.1,52.24 98.17,56.3 86.95,61.98 C 65.15,72.37 45.21,86.98 29.61,105.48 C 26.29,109.9 22.49,114.02 20.01,119.01 C 13.45,132.14 13.02,148.09 18.21,161.75 C 21.99,170.35 28.46,177.42 34.76,184.25 C 43.97,194.23 55.07,202.17 66.57,209.29 C 89.01,221.85 113.25,230.74 137.75,238.34 C 191.97,253.24 247.93,261.61 304.05,264.23 C 313.65,265.58 323.36,264.56 333,265.16 C 347.33,265.19 361.66,265.4 375.98,264.96 C 382.98,264.85 390.01,265.27 396.97,264.38 C 401.32,263.89 405.71,264.02 410.08,263.92 C 428.04,262.35 446.09,261.38 463.89,258.29 C 483.15,255.35 502.4,252.39 521.48,248.41 C 529.34,246.85 537.31,245.66 544.98,243.25 C 574.84,236.33 604.23,226.66 631.35,212.24 C 643.71,204.96 655.87,197.21 666.71,187.77 C 675.3,179.78 683.1,170.67 687.9,159.86 C 690.76,153.28 693.33,146.26 692.99,138.97 C 693.44,124.2 686.31,110.05 676.31,99.53 C 668.19,90.22 657.89,83.21 647.61,76.5 C 620.42,59.43 589.83,48.73 559.13,39.9 C 525.2,29.77 490.18,23.87 455.14,19.19 C 441.74,18.05 428.41,16.04 414.95,15.75 C 408.02,14.72 400.97,15.36 394.03,14.35 C 376.04,13.76 358.04,14.14 340.04,14.03 C 334.03,13.92 328.06,14.78 322.07,14.97 z"
       id="path24"
       style="opacity:1;fill:#020298" />
    <path
       d="M 289.08,26.63 C 299,25.5 309.01,26.42 318.93,25.31 C 341.6,24.73 364.3,24.8 386.97,25.31 C 394.65,26.35 402.43,25.61 410.11,26.53 C 417.04,27.31 424.05,26.51 430.94,27.68 C 446.06,28.17 461.03,30.6 476.08,32.03 C 513.29,37.04 550.27,44.43 586.02,56.03 C 601.18,61.11 616.11,66.86 630.79,73.21 C 644.06,79.6 656.94,87.12 668.07,96.84 C 677.97,105.22 686.11,116.42 688.66,129.34 C 690.15,139.32 688.36,149.65 683.81,158.65 C 675.78,175.31 661.57,188.05 646.48,198.27 C 629.55,210.64 609.75,218.18 590.08,224.99 C 567.56,232.34 544.5,238.18 521.09,241.87 C 512.95,242.79 504.91,244.36 496.81,245.53 C 465.62,249.29 434.29,251.56 403,254.02 C 393.34,254.07 383.67,253.9 374.04,254.67 C 361.02,255.22 347.99,254.99 334.96,255.04 C 329.62,255.07 324.26,255.04 318.94,254.59 C 310.66,253.68 302.3,254.44 294.04,253.38 C 256.56,251.87 219.17,247.63 182.33,240.41 C 154.25,235.5 126.86,227.33 99.96,218 C 75.27,208.43 50.94,195.86 32.71,176.22 C 22.75,166.3 16.96,152.01 18.09,137.92 C 19.4,126.33 26.3,116.37 33.28,107.4 C 36.73,103.47 40.31,99.65 43.99,95.94 C 58.42,83.31 74.95,73.11 92.43,65.26 C 95.43,63.94 98.43,62.6 101.43,61.26 C 139.23,44.71 180.09,36.57 220.86,31.55 C 243.55,29.26 266.28,27.42 289.08,26.63 M 186.88,78.83 C 177.38,79.06 168.25,82.15 159.35,85.25 C 150.2,88.86 141.92,94.33 133.99,100.08 C 124.8,107.42 117.29,116.96 112.85,127.89 C 111.3,131.78 109.9,135.83 109.9,140.06 C 109.71,145.67 109.5,151.45 111.26,156.86 C 114.1,167.49 122.64,176.75 133.41,179.52 C 147.87,184.04 163.71,180.78 176.94,174.05 C 181.3,171.13 186.94,169.02 189.09,163.85 C 188.41,162.84 187.78,161.8 187.05,160.84 C 180.64,164.71 174.39,168.98 167.18,171.26 C 158.73,174.79 148.51,175.56 140.38,170.77 C 133.76,167.32 130.49,159.89 129.17,152.88 C 127.35,138.52 133.27,124.53 140.85,112.66 C 145.06,106.14 150.98,100.95 156.93,96.06 C 167.75,87.54 182.1,83.56 195.72,85.98 C 196.04,86.42 196.66,87.32 196.98,87.77 C 194.62,91.1 194.22,95.65 197.23,98.75 C 202.94,103.48 213.15,100.84 215.35,93.52 C 217.39,89.17 214.08,84.73 210.58,82.38 C 203.63,77.77 194.85,77.67 186.88,78.83 M 452.47,81.58 C 444.61,83.81 440.82,95.35 447.22,101.1 C 450.52,101.2 454.32,101.43 456.82,98.82 C 461.22,95.5 462.54,89.38 461,84.26 C 458.76,82.17 455.61,79.96 452.47,81.58 M 318.72,136.76 C 319.83,131.68 321.55,126.73 322.4,121.57 C 323.52,117.38 323.22,112.07 319.57,109.18 C 316.52,108.66 313.29,108.93 310.54,110.4 C 303.08,114.38 297.43,120.89 292.42,127.54 C 291.54,129.26 290.37,131.12 290.98,133.13 C 292.29,133.02 293.67,132.72 294.5,131.58 C 298.61,127.24 302.07,121.92 307.62,119.26 C 307.66,119.91 307.74,121.21 307.78,121.86 C 303.32,140.2 296.83,157.94 291.26,175.95 C 291.88,176.92 292.43,177.94 293.19,178.82 C 297.07,179.32 301,179.23 304.89,179.01 C 307.61,176.11 308.2,172.07 309.61,168.5 C 314.35,154.79 321.58,142.16 328.52,129.49 C 330.75,125.74 333.75,122.4 337.71,120.44 C 338.46,122.57 339,124.77 339.32,127 C 340.79,128.1 342.36,129.04 343.97,129.93 C 347.93,129.99 351.36,127.76 353.69,124.7 C 354,123.53 354.35,122.38 354.73,121.24 C 355.18,116.72 353.14,112.35 349.98,109.21 C 348.2,108.91 346.44,108.58 344.69,108.19 C 331.49,112.51 326.38,126.55 318.72,136.76 M 406.88,111.84 C 398.18,118.42 393.83,128.72 387.88,137.52 C 389.36,128.61 395.24,118.82 390,110.11 C 380.71,107.25 372.31,114.19 366.79,120.92 C 364.09,124.81 359.43,128 359.66,133.22 C 360.5,133.1 362.19,132.86 363.04,132.75 C 367.5,128.28 370.58,122.16 376.69,119.6 C 376.73,120.98 377.16,122.41 376.77,123.78 C 371.92,139.56 367.1,155.36 361.99,171.06 C 361.51,173.44 359.75,177.02 362.33,178.69 C 366.03,180.34 370.09,179.63 373.92,178.89 C 374.64,177.94 375.6,177.13 375.96,175.95 C 378.57,169.03 380.97,162.03 384.2,155.37 C 386.67,149.11 390.36,143.46 393.23,137.39 C 397.05,131.45 400.53,125.06 406.01,120.45 C 408.96,122.65 407.81,127.19 410.76,129.34 C 414.42,131.11 418.8,129.39 421.42,126.56 C 425.07,121.75 424.06,114.45 420.09,110.18 C 416.05,106.44 410.72,109.42 406.88,111.84 M 491.56,113.54 C 478.14,120.92 468.67,134.94 466.78,150.13 C 465.27,157.26 466.19,164.91 469.32,171.49 C 473.61,180.03 483.96,183.75 493.06,182.86 C 500.32,181.54 507.59,179.23 513.53,174.69 C 518.66,171.15 523.75,166.95 526.13,161 C 524.98,160.62 523.7,159.36 522.66,160.72 C 517.19,164.78 511.7,169.06 505.1,171.15 C 498.92,173.61 491.35,172.31 486.6,167.58 C 482.88,163.47 483.21,157.12 484.98,152.22 C 499.28,148.9 515.15,147.87 526.98,138.24 C 532.17,133.71 536.37,126.44 533.87,119.45 C 532.87,117.41 531.96,115.27 530.44,113.55 C 527.49,110.67 523.45,109.32 519.51,108.46 C 509.97,106.94 499.84,108.41 491.56,113.54 M 239.97,110.05 C 228.31,113.4 218.32,121.28 211.18,130.94 C 204,141.42 198.52,154.09 200.04,167.04 C 200.68,172.8 204.1,178.19 209.27,180.9 C 212.68,181.66 216.15,181.71 219.54,180.79 C 228.15,177.94 234.13,170.89 240.32,164.67 C 240.41,168.3 239.69,171.98 240.35,175.58 C 241.39,178.76 244.43,181.73 248.02,181.2 C 256.74,180.69 263.33,173.98 269.2,168.19 C 271.81,165.02 275.78,161.29 274.13,156.77 C 267.28,159.59 265.4,168.75 257.66,169.99 C 257.77,165.74 259.51,161.82 260.72,157.81 C 265.82,141.61 270.84,125.38 275.94,109.18 C 271.43,108.72 266.89,108.8 262.37,108.75 C 261.3,110.34 260.29,111.96 259.3,113.58 C 254.53,107.96 246.46,108.24 239.97,110.05 M 588.19,113.25 C 580.02,119.84 575.97,129.85 570.21,138.36 C 571.65,131.29 574.16,124.43 574.68,117.17 C 574.43,114.58 573.54,112.09 572,109.98 C 569.11,110.08 566.15,109.72 563.34,110.46 C 553.92,114.3 547.94,122.94 541.99,130.73 C 542.11,131.38 542.35,132.69 542.47,133.34 C 543.71,133.07 545.25,133.35 546.18,132.29 C 550.74,128.34 553.23,122.01 559.2,119.78 C 559.26,121.53 559.22,123.3 558.82,125.02 C 554.81,143.06 547.57,160.17 543.22,178.12 C 546.92,180.72 551.66,179.7 555.89,180.04 C 557.59,178.52 558.86,176.6 559.33,174.34 C 562.95,162 569.25,150.71 575.26,139.42 C 579.16,132.66 582.3,124.87 589.23,120.58 C 590.23,123.04 590.71,125.7 591.86,128.1 C 593.35,129.42 595.39,129.95 597.16,130.85 C 601.83,129.36 606.69,125.53 606.03,120.07 C 606.8,115.36 603.68,111.49 600.17,108.83 C 595.84,108.99 591.52,110.42 588.19,113.25 M 438.28,114.48 C 432.22,132 426.15,149.51 420.12,167.03 C 418.17,171.97 418.74,177.78 422.16,181.95 C 426.28,182.09 430.54,182.2 434.36,180.4 C 441.95,176.77 448.8,171.36 453.73,164.52 C 455.14,162.8 454.94,160.58 454.73,158.52 C 448.06,161.91 444.36,169.61 436.85,171.49 C 436.79,169.37 436.54,167.19 437.18,165.13 C 439.54,157.53 442,149.95 444.7,142.46 C 448.11,132.16 451.6,121.87 454.21,111.33 C 450.41,109.33 446.02,110.07 441.92,110.13 C 439.43,109.85 439.06,112.78 438.28,114.48 z"
       id="path26"
       style="opacity:1;fill:#020298" />
    <path
       d="M 505.46,114.27 C 508.56,112.05 512.79,112.92 515.52,115.3 C 518.18,118.96 518.17,123.81 516.93,128.01 C 515.29,134.94 509.03,139.32 502.93,142.14 C 497.75,144.1 492.23,145.13 486.69,145.12 C 490.61,133.82 494.15,120.41 505.46,114.27 z"
       id="path28"
       style="opacity:1;fill:#020298" />
    <path
       d="M 243.36,116.07 C 246.89,114.45 250.99,114.06 254.47,116.04 C 254.87,116.69 255.67,117.97 256.07,118.62 C 257.12,124.17 253.9,129.01 252.05,133.98 C 246.74,146.33 241.01,159.89 229,167.14 C 224.69,169.77 218.73,168.08 216.95,163.25 C 218.3,144.76 228.01,126.66 243.36,116.07 z"
       id="path30"
       style="opacity:1;fill:#020298" />
  </g>
</svg>
